<svg width="147" height="156" viewBox="0 0 147 156" fill="none" xmlns="http://www.w3.org/2000/svg">
<path d="M27 99L83 43.5" stroke="#6431F4"/>
<line x1="50.6464" y1="121.646" x2="105.646" y2="66.6464" stroke="#6431F4"/>
<line x1="27.346" y1="98.639" x2="51.346" y2="121.639" stroke="#6431F4"/>
<line x1="82.346" y1="43.639" x2="106.346" y2="66.639" stroke="#6431F4"/>
<line x1="105.849" y1="66.5234" x2="146.849" y2="53.5234" stroke="#6431F4"/>
<line x1="9.84888" y1="134.523" x2="50.8489" y2="121.523" stroke="#6431F4"/>
<line x1="105.569" y1="66.7465" x2="125.569" y2="32.7465" stroke="#6431F4"/>
<line x1="30.569" y1="155.746" x2="50.569" y2="121.746" stroke="#6431F4"/>
<line x1="82.5" y1="44" x2="82.5" y2="25" stroke="#6431F4"/>
<path d="M88.3902 0.687705L97.5 11" stroke="#6431F4"/>
<line x1="74.3904" y1="14.6877" x2="82.3904" y2="24.6877" stroke="#6431F4"/>
<line x1="97.3536" y1="10.3536" x2="82.3536" y2="25.3536" stroke="#6431F4"/>
<line x1="88.3536" y1="1.35355" x2="74.3536" y2="15.3536" stroke="#6431F4"/>
<line x1="74.4596" y1="15.197" x2="71.4596" y2="22.197" stroke="#6431F4"/>
<line x1="75.2236" y1="15.4472" x2="69.2236" y2="18.4472" stroke="#6431F4"/>
<circle cx="79" cy="15" r="1" fill="#6431F4"/>
<rect x="88" y="3.91455" width="1.34101" height="2.01151" rx="0.670503" transform="rotate(-43.0009 88 3.91455)" fill="#6431F4"/>
<line x1="26.938" y1="99.4961" x2="2.93798" y2="96.4961" stroke="#6431F4"/>
<line x1="27.0733" y1="99.4946" x2="0.0732754" y2="103.495" stroke="#6431F4"/>
<line x1="27.1822" y1="99.4656" x2="4.1822" y2="108.466" stroke="#6431F4"/>
<line x1="27.3153" y1="99.3881" x2="11.3153" y2="112.388" stroke="#6431F4"/>
</svg>
