<svg width="52" height="52" viewBox="0 0 52 52" fill="none" xmlns="http://www.w3.org/2000/svg">
<line x1="3" y1="25.5" x2="50" y2="25.5" stroke="#6431F4" stroke-width="3"/>
<circle cx="26" cy="26" r="24.5" stroke="#6431F4" stroke-width="3"/>
<path fill-rule="evenodd" clip-rule="evenodd" d="M13.0427 26C13.0144 26.3489 13 26.7016 13 27.0578C13 34.1851 18.7801 39.9629 25.9101 39.9629C33.0402 39.9629 38.8203 34.1851 38.8203 27.0578C38.8203 26.7016 38.8059 26.3489 38.7775 26H35.7644C35.8014 26.3475 35.8203 26.7005 35.8203 27.0578C35.8203 32.5271 31.3845 36.9629 25.9101 36.9629C20.4358 36.9629 16 32.5271 16 27.0578C16 26.7005 16.0189 26.3475 16.0559 26H13.0427Z" fill="#6431F4"/>
<line x1="25.7071" y1="26.7071" x2="16.7071" y2="35.7071" stroke="#6431F4" stroke-width="2"/>
<line x1="35.2931" y1="35.7071" x2="26.2931" y2="26.7071" stroke="#6431F4" stroke-width="2"/>
<line y1="-1.5" x2="25.4951" y2="-1.5" transform="matrix(0.745241 -0.666795 0.745241 0.666795 8 27)" stroke="#6431F4" stroke-width="3"/>
<line y1="-1.5" x2="25.4951" y2="-1.5" transform="matrix(0.745241 0.666795 -0.745241 0.666795 25 10)" stroke="#6431F4" stroke-width="3"/>
<line x1="26" y1="1" x2="26" y2="11" stroke="#6431F4" stroke-width="4"/>
<line x1="26" y1="27" x2="26" y2="37" stroke="#6431F4" stroke-width="2"/>
</svg>
